<svg width="45" height="45" viewBox="0 0 45 45" fill="none" xmlns="http://www.w3.org/2000/svg">
<circle cx="22.5" cy="22.5" r="22.5" fill="#D9D9D9"/>
<path d="M32.4258 21.9062C32.3945 22.6641 32.2812 23.418 32.0859 24.168C31.8906 24.918 31.5938 25.6016 31.1953 26.2188C30.8047 26.8359 30.3008 27.3281 29.6836 27.6953C29.0664 28.0625 28.3242 28.2461 27.457 28.2461C26.9336 28.2461 26.4688 28.1562 26.0625 27.9766C25.6562 27.7891 25.3164 27.5234 25.043 27.1797C24.7773 26.8359 24.5859 26.4219 24.4688 25.9375C24.3516 25.4453 24.3203 24.8984 24.375 24.2969L24.9727 17.6523H27.0234L26.4375 24.2969C26.3906 24.7734 26.3984 25.1641 26.4609 25.4688C26.5312 25.7734 26.6367 26.0078 26.7773 26.1719C26.918 26.3359 27.0781 26.4492 27.2578 26.5117C27.4375 26.5742 27.6172 26.6055 27.7969 26.6055C28.2188 26.6055 28.5977 26.4883 28.9336 26.2539C29.2695 26.0117 29.5547 25.6797 29.7891 25.2578C30.0312 24.8281 30.2188 24.332 30.3516 23.7695C30.4922 23.207 30.5742 22.5977 30.5977 21.9414C30.6523 20.8477 30.6016 19.8398 30.4453 18.918C30.2891 17.9883 30.0234 17.1602 29.6484 16.4336C29.2812 15.707 28.8008 15.0938 28.207 14.5938C27.6211 14.0859 26.918 13.6992 26.0977 13.4336C25.2773 13.168 24.3398 13.0352 23.2852 13.0352C22.3164 13.0352 21.4219 13.1836 20.6016 13.4805C19.7812 13.7773 19.0469 14.207 18.3984 14.7695C17.75 15.3242 17.1914 15.9922 16.7227 16.7734C16.2617 17.5469 15.8984 18.418 15.6328 19.3867C15.375 20.3477 15.2227 21.3789 15.1758 22.4805C15.1211 23.6367 15.1797 24.6914 15.3516 25.6445C15.5312 26.5977 15.8203 27.4414 16.2188 28.1758C16.6172 28.9102 17.1172 29.5273 17.7188 30.0273C18.3281 30.5352 19.0312 30.918 19.8281 31.1758C20.6328 31.4336 21.5234 31.5625 22.5 31.5625C23.1875 31.5625 23.8828 31.4844 24.5859 31.3281C25.2969 31.1719 25.8945 30.9648 26.3789 30.707L26.8242 32.2656C26.2773 32.6172 25.5938 32.8789 24.7734 33.0508C23.9531 33.2227 23.1797 33.3086 22.4531 33.3086C21.2422 33.3086 20.1328 33.1523 19.125 32.8398C18.125 32.5273 17.2383 32.0664 16.4648 31.457C15.6992 30.8555 15.0625 30.1172 14.5547 29.2422C14.0469 28.3672 13.6719 27.3633 13.4297 26.2305C13.1875 25.0977 13.0938 23.8477 13.1484 22.4805C13.2031 21.1992 13.3984 19.9961 13.7344 18.8711C14.0703 17.7383 14.5312 16.7109 15.1172 15.7891C15.7109 14.8672 16.4141 14.0742 17.2266 13.4102C18.0469 12.7383 18.9688 12.2227 19.9922 11.8633C21.0156 11.5039 22.1289 11.3242 23.332 11.3242C24.5508 11.3242 25.6523 11.4844 26.6367 11.8047C27.6211 12.125 28.4844 12.5898 29.2266 13.1992C29.9766 13.8086 30.5977 14.5469 31.0898 15.4141C31.582 16.2812 31.9414 17.2617 32.168 18.3555C32.3945 19.4414 32.4805 20.625 32.4258 21.9062ZM20.5078 23.0195C20.4531 23.5508 20.4492 24.0234 20.4961 24.4375C20.5508 24.8516 20.6484 25.1992 20.7891 25.4805C20.9375 25.7617 21.1289 25.9766 21.3633 26.125C21.5977 26.2734 21.8711 26.3477 22.1836 26.3477C22.3789 26.3477 22.5859 26.3008 22.8047 26.207C23.0312 26.1055 23.2539 25.9453 23.4727 25.7266C23.6914 25.5078 23.8984 25.2188 24.0938 24.8594C24.2891 24.4922 24.4531 24.0391 24.5859 23.5L25.4766 24.5195C25.2969 25.1289 25.0703 25.668 24.7969 26.1367C24.5234 26.5977 24.2148 26.9844 23.8711 27.2969C23.5273 27.6016 23.1562 27.8359 22.7578 28C22.3594 28.1562 21.9453 28.2344 21.5156 28.2344C20.9453 28.2344 20.4375 28.1094 19.9922 27.8594C19.5547 27.6094 19.1953 27.2578 18.9141 26.8047C18.6328 26.3438 18.4336 25.7969 18.3164 25.1641C18.1992 24.5234 18.1758 23.8086 18.2461 23.0195C18.3242 22.2148 18.4727 21.4688 18.6914 20.7812C18.918 20.0938 19.1953 19.4805 19.5234 18.9414C19.8594 18.4023 20.2383 17.9453 20.6602 17.5703C21.082 17.1875 21.5352 16.8984 22.0195 16.7031C22.5117 16.5 23.0156 16.3984 23.5312 16.3984C24.4141 16.3984 25.1055 16.5234 25.6055 16.7734C26.1055 17.0234 26.5781 17.3164 27.0234 17.6523L25.9219 19.0586C25.6953 18.8477 25.3984 18.6484 25.0312 18.4609C24.6719 18.2734 24.2422 18.1797 23.7422 18.1797C23.2969 18.1797 22.8906 18.2812 22.5234 18.4844C22.1641 18.6875 21.8477 18.9961 21.5742 19.4102C21.3008 19.8164 21.0703 20.3203 20.8828 20.9219C20.7031 21.5234 20.5781 22.2227 20.5078 23.0195Z" fill="#131313"/>
</svg>
